<svg id="visual" viewBox="0 0 900 600" width="900" height="600" xmlns="http://www.w3.org/2000/svg" xmlns:xlink="http://www.w3.org/1999/xlink" version="1.1"><path d="M0 43L82 43L82 85L164 85L164 109L245 109L245 97L327 97L327 109L409 109L409 85L491 85L491 43L573 43L573 73L655 73L655 43L736 43L736 43L818 43L818 85L900 85L900 55L900 0L900 0L818 0L818 0L736 0L736 0L655 0L655 0L573 0L573 0L491 0L491 0L409 0L409 0L327 0L327 0L245 0L245 0L164 0L164 0L82 0L82 0L0 0Z" fill="#fa7268"></path><path d="M0 235L82 235L82 289L164 289L164 235L245 235L245 331L327 331L327 223L409 223L409 265L491 265L491 259L573 259L573 253L655 253L655 133L736 133L736 163L818 163L818 241L900 241L900 301L900 53L900 83L818 83L818 41L736 41L736 41L655 41L655 71L573 71L573 41L491 41L491 83L409 83L409 107L327 107L327 95L245 95L245 107L164 107L164 83L82 83L82 41L0 41Z" fill="#ea5e66"></path><path d="M0 283L82 283L82 385L164 385L164 283L245 283L245 373L327 373L327 313L409 313L409 331L491 331L491 343L573 343L573 331L655 331L655 181L736 181L736 211L818 211L818 277L900 277L900 343L900 299L900 239L818 239L818 161L736 161L736 131L655 131L655 251L573 251L573 257L491 257L491 263L409 263L409 221L327 221L327 329L245 329L245 233L164 233L164 287L82 287L82 233L0 233Z" fill="#d84a64"></path><path d="M0 529L82 529L82 523L164 523L164 547L245 547L245 511L327 511L327 535L409 535L409 445L491 445L491 439L573 439L573 487L655 487L655 463L736 463L736 469L818 469L818 457L900 457L900 451L900 341L900 275L818 275L818 209L736 209L736 179L655 179L655 329L573 329L573 341L491 341L491 329L409 329L409 311L327 311L327 371L245 371L245 281L164 281L164 383L82 383L82 281L0 281Z" fill="#c53762"></path><path d="M0 601L82 601L82 601L164 601L164 601L245 601L245 601L327 601L327 601L409 601L409 601L491 601L491 601L573 601L573 601L655 601L655 601L736 601L736 601L818 601L818 601L900 601L900 601L900 449L900 455L818 455L818 467L736 467L736 461L655 461L655 485L573 485L573 437L491 437L491 443L409 443L409 533L327 533L327 509L245 509L245 545L164 545L164 521L82 521L82 527L0 527Z" fill="#b0235f"></path></svg>