<?xml version="1.0" standalone="no"?>
<svg xmlns:xlink="http://www.w3.org/1999/xlink" id="wave" style="transform:rotate(0deg); transition: 0.3s" viewBox="0 0 1440 490" version="1.1" xmlns="http://www.w3.org/2000/svg"><defs><linearGradient id="sw-gradient-0" x1="0" x2="0" y1="1" y2="0"><stop stop-color="rgba(243, 106, 62, 1)" offset="0%"/><stop stop-color="rgba(255, 179, 11, 1)" offset="100%"/></linearGradient></defs><path style="transform:translate(0, 0px); opacity:1" fill="url(#sw-gradient-0)" d="M0,441L17.1,375.7C34.3,310,69,180,103,138.8C137.1,98,171,147,206,204.2C240,261,274,327,309,326.7C342.9,327,377,261,411,253.2C445.7,245,480,294,514,261.3C548.6,229,583,114,617,114.3C651.4,114,686,229,720,285.8C754.3,343,789,343,823,318.5C857.1,294,891,245,926,196C960,147,994,98,1029,106.2C1062.9,114,1097,180,1131,245C1165.7,310,1200,376,1234,359.3C1268.6,343,1303,245,1337,220.5C1371.4,196,1406,245,1440,277.7C1474.3,310,1509,327,1543,285.8C1577.1,245,1611,147,1646,122.5C1680,98,1714,147,1749,212.3C1782.9,278,1817,359,1851,375.7C1885.7,392,1920,343,1954,285.8C1988.6,229,2023,163,2057,122.5C2091.4,82,2126,65,2160,106.2C2194.3,147,2229,245,2263,285.8C2297.1,327,2331,310,2366,302.2C2400,294,2434,294,2451,294L2468.6,294L2468.6,490L2451.4,490C2434.3,490,2400,490,2366,490C2331.4,490,2297,490,2263,490C2228.6,490,2194,490,2160,490C2125.7,490,2091,490,2057,490C2022.9,490,1989,490,1954,490C1920,490,1886,490,1851,490C1817.1,490,1783,490,1749,490C1714.3,490,1680,490,1646,490C1611.4,490,1577,490,1543,490C1508.6,490,1474,490,1440,490C1405.7,490,1371,490,1337,490C1302.9,490,1269,490,1234,490C1200,490,1166,490,1131,490C1097.1,490,1063,490,1029,490C994.3,490,960,490,926,490C891.4,490,857,490,823,490C788.6,490,754,490,720,490C685.7,490,651,490,617,490C582.9,490,549,490,514,490C480,490,446,490,411,490C377.1,490,343,490,309,490C274.3,490,240,490,206,490C171.4,490,137,490,103,490C68.6,490,34,490,17,490L0,490Z"/><defs><linearGradient id="sw-gradient-1" x1="0" x2="0" y1="1" y2="0"><stop stop-color="rgba(243, 106, 62, 1)" offset="0%"/><stop stop-color="rgba(255, 179, 11, 1)" offset="100%"/></linearGradient></defs><path style="transform:translate(0, 50px); opacity:0.9" fill="url(#sw-gradient-1)" d="M0,392L17.1,343C34.3,294,69,196,103,155.2C137.1,114,171,131,206,187.8C240,245,274,343,309,326.7C342.9,310,377,180,411,122.5C445.7,65,480,82,514,147C548.6,212,583,327,617,359.3C651.4,392,686,343,720,269.5C754.3,196,789,98,823,65.3C857.1,33,891,65,926,114.3C960,163,994,229,1029,220.5C1062.9,212,1097,131,1131,130.7C1165.7,131,1200,212,1234,245C1268.6,278,1303,261,1337,212.3C1371.4,163,1406,82,1440,106.2C1474.3,131,1509,261,1543,326.7C1577.1,392,1611,392,1646,367.5C1680,343,1714,294,1749,253.2C1782.9,212,1817,180,1851,196C1885.7,212,1920,278,1954,326.7C1988.6,376,2023,408,2057,400.2C2091.4,392,2126,343,2160,343C2194.3,343,2229,392,2263,383.8C2297.1,376,2331,310,2366,310.3C2400,310,2434,376,2451,408.3L2468.6,441L2468.6,490L2451.4,490C2434.3,490,2400,490,2366,490C2331.4,490,2297,490,2263,490C2228.6,490,2194,490,2160,490C2125.7,490,2091,490,2057,490C2022.9,490,1989,490,1954,490C1920,490,1886,490,1851,490C1817.1,490,1783,490,1749,490C1714.3,490,1680,490,1646,490C1611.4,490,1577,490,1543,490C1508.6,490,1474,490,1440,490C1405.7,490,1371,490,1337,490C1302.9,490,1269,490,1234,490C1200,490,1166,490,1131,490C1097.1,490,1063,490,1029,490C994.3,490,960,490,926,490C891.4,490,857,490,823,490C788.6,490,754,490,720,490C685.7,490,651,490,617,490C582.9,490,549,490,514,490C480,490,446,490,411,490C377.1,490,343,490,309,490C274.3,490,240,490,206,490C171.4,490,137,490,103,490C68.6,490,34,490,17,490L0,490Z"/><defs><linearGradient id="sw-gradient-2" x1="0" x2="0" y1="1" y2="0"><stop stop-color="rgba(243, 106, 62, 1)" offset="0%"/><stop stop-color="rgba(255, 179, 11, 1)" offset="100%"/></linearGradient></defs><path style="transform:translate(0, 100px); opacity:0.8" fill="url(#sw-gradient-2)" d="M0,294L17.1,277.7C34.3,261,69,229,103,236.8C137.1,245,171,294,206,310.3C240,327,274,310,309,253.2C342.9,196,377,98,411,106.2C445.7,114,480,229,514,261.3C548.6,294,583,245,617,236.8C651.4,229,686,261,720,277.7C754.3,294,789,294,823,318.5C857.1,343,891,392,926,400.2C960,408,994,376,1029,334.8C1062.9,294,1097,245,1131,212.3C1165.7,180,1200,163,1234,204.2C1268.6,245,1303,343,1337,351.2C1371.4,359,1406,278,1440,245C1474.3,212,1509,229,1543,261.3C1577.1,294,1611,343,1646,326.7C1680,310,1714,229,1749,212.3C1782.9,196,1817,245,1851,285.8C1885.7,327,1920,359,1954,367.5C1988.6,376,2023,359,2057,326.7C2091.4,294,2126,245,2160,212.3C2194.3,180,2229,163,2263,171.5C2297.1,180,2331,212,2366,220.5C2400,229,2434,212,2451,204.2L2468.6,196L2468.6,490L2451.4,490C2434.3,490,2400,490,2366,490C2331.4,490,2297,490,2263,490C2228.6,490,2194,490,2160,490C2125.7,490,2091,490,2057,490C2022.9,490,1989,490,1954,490C1920,490,1886,490,1851,490C1817.1,490,1783,490,1749,490C1714.3,490,1680,490,1646,490C1611.4,490,1577,490,1543,490C1508.6,490,1474,490,1440,490C1405.7,490,1371,490,1337,490C1302.9,490,1269,490,1234,490C1200,490,1166,490,1131,490C1097.1,490,1063,490,1029,490C994.3,490,960,490,926,490C891.4,490,857,490,823,490C788.6,490,754,490,720,490C685.7,490,651,490,617,490C582.9,490,549,490,514,490C480,490,446,490,411,490C377.1,490,343,490,309,490C274.3,490,240,490,206,490C171.4,490,137,490,103,490C68.6,490,34,490,17,490L0,490Z"/><defs><linearGradient id="sw-gradient-3" x1="0" x2="0" y1="1" y2="0"><stop stop-color="rgba(243, 106, 62, 1)" offset="0%"/><stop stop-color="rgba(255, 179, 11, 1)" offset="100%"/></linearGradient></defs><path style="transform:translate(0, 150px); opacity:0.7" fill="url(#sw-gradient-3)" d="M0,245L17.1,245C34.3,245,69,245,103,245C137.1,245,171,245,206,228.7C240,212,274,180,309,163.3C342.9,147,377,147,411,130.7C445.7,114,480,82,514,81.7C548.6,82,583,114,617,122.5C651.4,131,686,114,720,163.3C754.3,212,789,327,823,334.8C857.1,343,891,245,926,228.7C960,212,994,278,1029,253.2C1062.9,229,1097,114,1131,122.5C1165.7,131,1200,261,1234,285.8C1268.6,310,1303,229,1337,196C1371.4,163,1406,180,1440,171.5C1474.3,163,1509,131,1543,122.5C1577.1,114,1611,131,1646,122.5C1680,114,1714,82,1749,106.2C1782.9,131,1817,212,1851,204.2C1885.7,196,1920,98,1954,89.8C1988.6,82,2023,163,2057,228.7C2091.4,294,2126,343,2160,343C2194.3,343,2229,294,2263,261.3C2297.1,229,2331,212,2366,220.5C2400,229,2434,261,2451,277.7L2468.6,294L2468.6,490L2451.4,490C2434.3,490,2400,490,2366,490C2331.4,490,2297,490,2263,490C2228.6,490,2194,490,2160,490C2125.7,490,2091,490,2057,490C2022.9,490,1989,490,1954,490C1920,490,1886,490,1851,490C1817.1,490,1783,490,1749,490C1714.3,490,1680,490,1646,490C1611.4,490,1577,490,1543,490C1508.6,490,1474,490,1440,490C1405.7,490,1371,490,1337,490C1302.9,490,1269,490,1234,490C1200,490,1166,490,1131,490C1097.1,490,1063,490,1029,490C994.3,490,960,490,926,490C891.4,490,857,490,823,490C788.6,490,754,490,720,490C685.7,490,651,490,617,490C582.9,490,549,490,514,490C480,490,446,490,411,490C377.1,490,343,490,309,490C274.3,490,240,490,206,490C171.4,490,137,490,103,490C68.6,490,34,490,17,490L0,490Z"/></svg>